<svg width="527" height="204" viewBox="0 0 527 204" fill="none" xmlns="http://www.w3.org/2000/svg">
<path d="M111.182 82.597L111.692 83.1777C112.946 87.5088 112.095 93.9364 110.846 98.1666C103.965 121.467 77.2629 128.469 58.3894 138.932C51.2912 142.868 43.6759 148.259 41.4032 156.495C40.1935 160.907 40.7839 165.613 43.0442 169.588C47.4849 177.242 56.8977 181.07 65.092 183.199C66.079 189.709 66.1766 196.459 66.1376 203.032C61.1262 202.01 56.2231 200.517 51.4936 198.568C43.9212 195.414 36.7916 190.951 31.1539 184.941C23.9084 177.222 20.7223 168.662 21.11 158.08C22.2611 126.648 61.2873 114.409 84.3313 101.788C94.1846 96.3916 102.94 90.2328 111.182 82.597Z" fill="url(#paint0_linear_4_25)"/>
<path d="M111.729 31.817C114.282 34.3426 116.232 43.14 116.699 46.8259C117.461 52.8429 116.837 59.1186 114.144 64.6073C102.548 88.2476 59.6351 101.908 38.1218 116.489C32.6987 120.088 27.886 124.536 23.8658 129.654C16.3357 139.4 14.2823 149.913 15.8199 161.955L14.0325 159.141C12.2546 156.423 10.4393 153.672 8.97613 150.771C5.48615 143.854 5.05518 136.473 6.32418 128.953C12.8729 90.1388 73.8829 79.946 98.6724 53.9839C104.719 47.6509 108.974 40.1074 111.729 31.817Z" fill="url(#paint1_linear_4_25)"/>
<path d="M93.7854 0C97.951 3.22611 101.65 9.06755 103.504 13.8692C105.761 19.7123 105.64 25.8289 103.532 31.7129C95.9943 52.7532 69.6875 63.6481 51.3894 73.3746C41.7971 78.473 32.1564 83.4551 23.6235 90.26C14.8073 97.2909 8.73938 105.259 4.19424 115.559C2.95603 118.366 2.34036 121.31 1.68572 124.293C0.949869 119.836 0.152447 115.457 0.0234183 110.925C-0.248065 101.391 1.8344 92.613 6.60975 84.3331C23.6333 54.8173 61.4258 51.2723 83.2129 28.1197C90.7146 20.1482 94.1135 10.8648 93.7854 0Z" fill="url(#paint2_linear_4_25)"/>
<path d="M132.348 51.8954C132.348 48.8901 133.459 46.3421 135.68 44.2514C138.032 42.1608 140.907 41.1154 144.304 41.1154H232.504C232.504 48.1714 231.197 53.3328 228.584 56.5994C226.101 59.8661 222.116 61.4994 216.628 61.4994H155.868V97.9554H208.984C208.984 105.011 207.677 110.173 205.064 113.439C202.581 116.706 198.596 118.339 193.108 118.339H155.868V162.635C155.868 168.777 153.973 173.219 150.184 175.963C146.525 178.707 140.58 180.079 132.348 180.079V51.8954ZM272.757 180.079C262.304 180.079 254.464 177.139 249.237 171.259C244.011 165.379 241.397 157.801 241.397 148.523V53.4634C241.397 48.4981 243.161 44.9048 246.689 42.6834C250.348 40.4621 255.901 39.3514 263.349 39.3514V147.739C263.349 152.443 264.329 155.841 266.289 157.931C268.38 159.891 271.712 160.871 276.285 160.871C281.381 160.871 286.02 159.63 290.201 157.147C291.378 158.193 292.292 159.565 292.945 161.263C293.599 162.831 293.925 164.399 293.925 165.967C293.925 169.626 292.031 172.893 288.242 175.767C284.583 178.642 279.422 180.079 272.757 180.079ZM387.3 162.635C387.3 168.254 385.536 172.566 382.008 175.571C378.61 178.577 373.384 180.079 366.328 180.079V167.927C367.504 166.49 369.006 164.53 370.836 162.047L369.66 161.263C365.74 167.143 360.905 171.782 355.156 175.179C349.537 178.446 343.134 180.079 335.948 180.079C329.153 180.079 323.012 178.577 317.524 175.571C312.166 172.435 307.985 168.189 304.98 162.831C301.974 157.343 300.472 151.137 300.472 144.211V92.6634C300.472 87.6981 302.236 84.1048 305.764 81.8834C309.422 79.6621 315.041 78.5514 322.62 78.5514V142.839C322.62 148.458 324.253 152.901 327.52 156.167C330.786 159.303 335.621 160.871 342.024 160.871C348.949 160.871 354.568 158.781 358.88 154.599C363.192 150.418 365.348 145.191 365.348 138.919V92.6634C365.348 87.6981 367.112 84.1048 370.64 81.8834C374.298 79.6621 379.852 78.5514 387.3 78.5514V162.635ZM411.132 180.079C405.905 180.079 401.397 178.119 397.608 174.199L445.236 107.559L399.96 43.6634C401.397 42.3568 403.227 41.3114 405.448 40.5274C407.669 39.7434 410.021 39.3514 412.504 39.3514C415.901 39.3514 419.037 39.9394 421.912 41.1154C424.917 42.2914 427.073 43.8594 428.38 45.8194L456.996 88.3514L451.9 95.4074L453.664 96.5834L488.16 45.8194C489.597 43.8594 491.753 42.2914 494.628 41.1154C497.503 39.9394 500.704 39.3514 504.232 39.3514C506.584 39.3514 508.871 39.7434 511.092 40.5274C513.313 41.3114 515.143 42.3568 516.58 43.6634L471.5 107.559L518.932 174.199C515.404 178.119 510.896 180.079 505.408 180.079C502.533 180.079 499.855 179.491 497.372 178.315C495.02 177.009 493.06 175.245 491.492 173.023L458.368 125.003L425.048 173.023C423.48 175.114 421.455 176.813 418.972 178.119C416.62 179.426 414.007 180.079 411.132 180.079Z" fill="#48B1FF"/>
<defs>
<linearGradient id="paint0_linear_4_25" x1="66.6936" y1="82.597" x2="66.6936" y2="203.032" gradientUnits="userSpaceOnUse">
<stop stop-color="#0993F9"/>
<stop offset="0.389022" stop-color="#1098F0"/>
<stop offset="0.53653" stop-color="#21A6D8"/>
<stop offset="1" stop-color="#33B4BF"/>
</linearGradient>
<linearGradient id="paint1_linear_4_25" x1="72.3274" y1="87.6502" x2="19.6259" y2="147.523" gradientUnits="userSpaceOnUse">
<stop stop-color="#0993F9"/>
<stop offset="1" stop-color="#035ED1"/>
</linearGradient>
<linearGradient id="paint2_linear_4_25" x1="62.9593" y1="53.3257" x2="12.5568" y2="109.955" gradientUnits="userSpaceOnUse">
<stop stop-color="#0993F9"/>
<stop offset="1" stop-color="#035ED1"/>
</linearGradient>
</defs>
</svg>
