<svg width="527" height="204" viewBox="0 0 527 204" fill="none" xmlns="http://www.w3.org/2000/svg">
<path d="M111.182 83.2816L111.692 83.8623C112.946 88.1933 112.095 94.621 110.846 98.8512C103.965 122.151 77.2629 129.153 58.3894 139.617C51.2912 143.553 43.6759 148.943 41.4032 157.18C40.1935 161.591 40.7839 166.297 43.0442 170.273C47.4849 177.926 56.8977 181.755 65.092 183.883C66.079 190.394 66.1766 197.144 66.1376 203.716C61.1262 202.695 56.2231 201.201 51.4936 199.253C43.9212 196.099 36.7916 191.635 31.1539 185.626C23.9084 177.907 20.7223 169.346 21.11 158.765C22.2611 127.332 61.2873 115.094 84.3313 102.473C94.1846 97.0762 102.94 90.9174 111.182 83.2816Z" fill="url(#paint0_linear_4_4)"/>
<path d="M111.729 32.5016C114.282 35.0272 116.232 43.8246 116.699 47.5105C117.461 53.5275 116.837 59.8032 114.144 65.2919C102.548 88.9321 59.6351 102.592 38.1218 117.174C32.6987 120.773 27.886 125.22 23.8658 130.339C16.3357 140.085 14.2823 150.597 15.8199 162.639L14.0325 159.826C12.2546 157.108 10.4393 154.357 8.97613 151.455C5.48615 144.539 5.05518 137.157 6.32418 129.638C12.8729 90.8234 73.8829 80.6306 98.6724 54.6684C104.719 48.3354 108.974 40.792 111.729 32.5016Z" fill="url(#paint1_linear_4_4)"/>
<path d="M93.7854 0.68457C97.951 3.91068 101.65 9.75212 103.504 14.5538C105.761 20.3969 105.64 26.5134 103.532 32.3974C95.9943 53.4377 69.6875 64.3327 51.3894 74.0592C41.7971 79.1575 32.1564 84.1397 23.6235 90.9446C14.8073 97.9755 8.73938 105.943 4.19424 116.244C2.95603 119.05 2.34036 121.994 1.68572 124.978C0.949869 120.521 0.152447 116.142 0.0234183 111.61C-0.248065 102.076 1.8344 93.2976 6.60975 85.0177C23.6333 55.5019 61.4258 51.9568 83.2129 28.8042C90.7146 20.8328 94.1135 11.5494 93.7854 0.68457Z" fill="url(#paint2_linear_4_4)"/>
<path d="M132.348 52.58C132.348 49.5747 133.459 47.0267 135.68 44.936C138.032 42.8453 140.907 41.8 144.304 41.8H232.504C232.504 48.856 231.197 54.0173 228.584 57.284C226.101 60.5507 222.116 62.184 216.628 62.184H155.868V98.64H208.984C208.984 105.696 207.677 110.857 205.064 114.124C202.581 117.391 198.596 119.024 193.108 119.024H155.868V163.32C155.868 169.461 153.973 173.904 150.184 176.648C146.525 179.392 140.58 180.764 132.348 180.764V52.58ZM272.757 180.764C262.304 180.764 254.464 177.824 249.237 171.944C244.011 166.064 241.397 158.485 241.397 149.208V54.148C241.397 49.1827 243.161 45.5893 246.689 43.368C250.348 41.1467 255.901 40.036 263.349 40.036V148.424C263.349 153.128 264.329 156.525 266.289 158.616C268.38 160.576 271.712 161.556 276.285 161.556C281.381 161.556 286.02 160.315 290.201 157.832C291.378 158.877 292.292 160.249 292.945 161.948C293.599 163.516 293.925 165.084 293.925 166.652C293.925 170.311 292.031 173.577 288.242 176.452C284.583 179.327 279.422 180.764 272.757 180.764ZM387.3 163.32C387.3 168.939 385.536 173.251 382.008 176.256C378.61 179.261 373.384 180.764 366.328 180.764V168.612C367.504 167.175 369.006 165.215 370.836 162.732L369.66 161.948C365.74 167.828 360.905 172.467 355.156 175.864C349.537 179.131 343.134 180.764 335.948 180.764C329.153 180.764 323.012 179.261 317.524 176.256C312.166 173.12 307.985 168.873 304.98 163.516C301.974 158.028 300.472 151.821 300.472 144.896V93.348C300.472 88.3827 302.236 84.7893 305.764 82.568C309.422 80.3467 315.041 79.236 322.62 79.236V143.524C322.62 149.143 324.253 153.585 327.52 156.852C330.786 159.988 335.621 161.556 342.024 161.556C348.949 161.556 354.568 159.465 358.88 155.284C363.192 151.103 365.348 145.876 365.348 139.604V93.348C365.348 88.3827 367.112 84.7893 370.64 82.568C374.298 80.3467 379.852 79.236 387.3 79.236V163.32ZM411.132 180.764C405.905 180.764 401.397 178.804 397.608 174.884L445.236 108.244L399.96 44.348C401.397 43.0413 403.227 41.996 405.448 41.212C407.669 40.428 410.021 40.036 412.504 40.036C415.901 40.036 419.037 40.624 421.912 41.8C424.917 42.976 427.073 44.544 428.38 46.504L456.996 89.036L451.9 96.092L453.664 97.268L488.16 46.504C489.597 44.544 491.753 42.976 494.628 41.8C497.503 40.624 500.704 40.036 504.232 40.036C506.584 40.036 508.871 40.428 511.092 41.212C513.313 41.996 515.143 43.0413 516.58 44.348L471.5 108.244L518.932 174.884C515.404 178.804 510.896 180.764 505.408 180.764C502.533 180.764 499.855 180.176 497.372 179C495.02 177.693 493.06 175.929 491.492 173.708L458.368 125.688L425.048 173.708C423.48 175.799 421.455 177.497 418.972 178.804C416.62 180.111 414.007 180.764 411.132 180.764Z" fill="white"/>
<defs>
<linearGradient id="paint0_linear_4_4" x1="66.6936" y1="83.2816" x2="66.6936" y2="203.716" gradientUnits="userSpaceOnUse">
<stop stop-color="#0993F9"/>
<stop offset="0.389022" stop-color="#1098F0"/>
<stop offset="0.53653" stop-color="#21A6D8"/>
<stop offset="1" stop-color="#33B4BF"/>
</linearGradient>
<linearGradient id="paint1_linear_4_4" x1="72.3274" y1="88.3348" x2="19.6259" y2="148.207" gradientUnits="userSpaceOnUse">
<stop stop-color="#0993F9"/>
<stop offset="1" stop-color="#035ED1"/>
</linearGradient>
<linearGradient id="paint2_linear_4_4" x1="62.9593" y1="54.0103" x2="12.5568" y2="110.639" gradientUnits="userSpaceOnUse">
<stop stop-color="#0993F9"/>
<stop offset="1" stop-color="#035ED1"/>
</linearGradient>
</defs>
</svg>
