<svg width="555" height="244" viewBox="0 0 555 244" fill="none" xmlns="http://www.w3.org/2000/svg">
<path d="M133.462 99.1483L134.074 99.8453C135.579 105.044 134.557 112.76 133.058 117.838C124.798 145.807 92.7452 154.212 70.0898 166.772C61.5692 171.497 52.4279 177.968 49.6998 187.855C48.2476 193.15 48.9564 198.799 51.6696 203.571C57.0001 212.758 68.2992 217.354 78.1355 219.909C79.3203 227.724 79.4374 235.826 79.3906 243.716C73.3749 242.49 67.4894 240.697 61.8121 238.358C52.7223 234.572 44.1641 229.214 37.3967 222.001C28.6993 212.735 24.8747 202.459 25.3402 189.757C26.7219 152.026 73.5684 137.335 101.23 122.185C113.058 115.707 123.568 108.314 133.462 99.1483Z" fill="url(#paint0_linear_1_55)"/>
<path d="M134.118 38.1927C137.182 41.2244 139.523 51.7846 140.083 56.2091C140.998 63.4318 140.249 70.9651 137.017 77.5537C123.097 105.931 71.5851 122.328 45.7608 139.832C39.251 144.152 33.4739 149.491 28.6482 155.635C19.6091 167.334 17.1443 179.953 18.99 194.408L16.8444 191.031C14.7102 187.768 12.5312 184.466 10.7748 180.983C6.5855 172.68 6.06817 163.82 7.59146 154.794C15.4524 108.201 88.688 95.966 118.445 64.8014C125.704 57.1994 130.81 48.1444 134.118 38.1927Z" fill="url(#paint1_linear_1_55)"/>
<path d="M112.579 0C117.579 3.87257 122.019 10.8846 124.245 16.6484C126.954 23.6624 126.808 31.0046 124.278 38.0677C115.23 63.3241 83.6519 76.4023 61.6871 88.0778C50.1727 94.1978 38.6 100.178 28.3573 108.347C17.7745 116.787 10.4906 126.351 5.03471 138.715C3.54838 142.084 2.80934 145.618 2.02352 149.2C1.14021 143.849 0.182995 138.593 0.0281109 133.153C-0.297774 121.709 2.20199 111.171 7.93425 101.232C28.3691 65.8019 73.7346 61.5465 99.8876 33.7544C108.892 24.1856 112.972 13.042 112.579 0Z" fill="url(#paint2_linear_1_55)"/>
<path d="M160.389 205V62.4545H254.77V87.3026H190.527V121.268H248.506V146.116H190.527V205H160.389ZM296.295 62.4545V205H266.645V62.4545H296.295ZM380.765 159.48V98.0909H410.416V205H381.949V185.581H380.835C378.422 191.845 374.408 196.88 368.794 200.685C363.226 204.49 356.428 206.392 348.4 206.392C341.254 206.392 334.967 204.768 329.538 201.52C324.109 198.272 319.863 193.655 316.801 187.669C313.785 181.683 312.253 174.514 312.207 166.162V98.0909H341.858V160.872C341.904 167.183 343.598 172.171 346.939 175.837C350.28 179.502 354.757 181.335 360.372 181.335C363.945 181.335 367.286 180.523 370.395 178.899C373.503 177.229 376.009 174.769 377.912 171.521C379.86 168.273 380.812 164.259 380.765 159.48ZM455.108 62.4545L483.854 111.037H484.968L513.853 62.4545H547.888L504.387 133.727L548.862 205H514.201L484.968 156.348H483.854L454.621 205H420.098L464.713 133.727L420.933 62.4545H455.108Z" fill="white"/>
<defs>
<linearGradient id="paint0_linear_1_55" x1="80.058" y1="99.1483" x2="80.058" y2="243.716" gradientUnits="userSpaceOnUse">
<stop stop-color="#0993F9"/>
<stop offset="0.389022" stop-color="#1098F0"/>
<stop offset="0.53653" stop-color="#21A6D8"/>
<stop offset="1" stop-color="#33B4BF"/>
</linearGradient>
<linearGradient id="paint1_linear_1_55" x1="86.8208" y1="105.214" x2="23.5587" y2="177.084" gradientUnits="userSpaceOnUse">
<stop stop-color="#0993F9"/>
<stop offset="1" stop-color="#035ED1"/>
</linearGradient>
<linearGradient id="paint2_linear_1_55" x1="75.5755" y1="64.0114" x2="15.0729" y2="131.988" gradientUnits="userSpaceOnUse">
<stop stop-color="#0993F9"/>
<stop offset="1" stop-color="#035ED1"/>
</linearGradient>
</defs>
</svg>
