<svg width="555" height="244" viewBox="0 0 555 244" fill="none" xmlns="http://www.w3.org/2000/svg">
<path d="M133.462 99.1483L134.074 99.8453C135.579 105.044 134.557 112.76 133.058 117.838C124.798 145.807 92.7452 154.212 70.0898 166.772C61.5692 171.497 52.4279 177.968 49.6998 187.855C48.2476 193.15 48.9564 198.799 51.6696 203.571C57.0001 212.758 68.2992 217.354 78.1355 219.909C79.3203 227.724 79.4374 235.826 79.3906 243.716C73.3749 242.49 67.4894 240.697 61.8121 238.358C52.7223 234.572 44.1641 229.214 37.3967 222.001C28.6993 212.735 24.8747 202.459 25.3402 189.757C26.7219 152.026 73.5684 137.335 101.23 122.185C113.058 115.707 123.568 108.314 133.462 99.1483Z" fill="url(#paint0_linear_1_55)"/>
<path d="M134.118 38.1927C137.182 41.2244 139.523 51.7846 140.083 56.2091C140.998 63.4318 140.249 70.9651 137.017 77.5537C123.097 105.931 71.5851 122.328 45.7608 139.832C39.251 144.152 33.4739 149.491 28.6482 155.635C19.6091 167.334 17.1443 179.953 18.99 194.408L16.8444 191.031C14.7102 187.768 12.5312 184.466 10.7748 180.983C6.5855 172.68 6.06817 163.82 7.59146 154.794C15.4524 108.201 88.688 95.966 118.445 64.8014C125.704 57.1994 130.81 48.1444 134.118 38.1927Z" fill="url(#paint1_linear_1_55)"/>
<path d="M112.579 0C117.579 3.87257 122.019 10.8846 124.245 16.6484C126.954 23.6624 126.808 31.0046 124.278 38.0677C115.23 63.3241 83.6519 76.4023 61.6871 88.0778C50.1727 94.1978 38.6 100.178 28.3573 108.347C17.7745 116.787 10.4906 126.351 5.03471 138.715C3.54838 142.084 2.80933 145.618 2.02352 149.2C1.14021 143.849 0.182995 138.593 0.0281109 133.153C-0.297774 121.709 2.20199 111.171 7.93425 101.232C28.3691 65.8019 73.7346 61.5465 99.8876 33.7544C108.892 24.1856 112.972 13.042 112.579 0Z" fill="url(#paint2_linear_1_55)"/>
<path d="M160.348 85.58C160.348 82.5747 161.459 80.0267 163.68 77.936C166.032 75.8453 168.907 74.8 172.304 74.8H260.504C260.504 81.856 259.197 87.0173 256.584 90.284C254.101 93.5507 250.116 95.184 244.628 95.184H183.868V131.64H236.984C236.984 138.696 235.677 143.857 233.064 147.124C230.581 150.391 226.596 152.024 221.108 152.024H183.868V196.32C183.868 202.461 181.973 206.904 178.184 209.648C174.525 212.392 168.58 213.764 160.348 213.764V85.58ZM300.757 213.764C290.304 213.764 282.464 210.824 277.237 204.944C272.011 199.064 269.397 191.485 269.397 182.208V87.148C269.397 82.1827 271.161 78.5893 274.689 76.368C278.348 74.1467 283.901 73.036 291.349 73.036V181.424C291.349 186.128 292.329 189.525 294.289 191.616C296.38 193.576 299.712 194.556 304.285 194.556C309.381 194.556 314.02 193.315 318.201 190.832C319.378 191.877 320.292 193.249 320.945 194.948C321.599 196.516 321.925 198.084 321.925 199.652C321.925 203.311 320.031 206.577 316.242 209.452C312.583 212.327 307.422 213.764 300.757 213.764ZM415.3 196.32C415.3 201.939 413.536 206.251 410.008 209.256C406.61 212.261 401.384 213.764 394.328 213.764V201.612C395.504 200.175 397.006 198.215 398.836 195.732L397.66 194.948C393.74 200.828 388.905 205.467 383.156 208.864C377.537 212.131 371.134 213.764 363.948 213.764C357.153 213.764 351.012 212.261 345.524 209.256C340.166 206.12 335.985 201.873 332.98 196.516C329.974 191.028 328.472 184.821 328.472 177.896V126.348C328.472 121.383 330.236 117.789 333.764 115.568C337.422 113.347 343.041 112.236 350.62 112.236V176.524C350.62 182.143 352.253 186.585 355.52 189.852C358.786 192.988 363.621 194.556 370.024 194.556C376.949 194.556 382.568 192.465 386.88 188.284C391.192 184.103 393.348 178.876 393.348 172.604V126.348C393.348 121.383 395.112 117.789 398.64 115.568C402.298 113.347 407.852 112.236 415.3 112.236V196.32ZM439.132 213.764C433.905 213.764 429.397 211.804 425.608 207.884L473.236 141.244L427.96 77.348C429.397 76.0413 431.227 74.996 433.448 74.212C435.669 73.428 438.021 73.036 440.504 73.036C443.901 73.036 447.037 73.624 449.912 74.8C452.917 75.976 455.073 77.544 456.38 79.504L484.996 122.036L479.9 129.092L481.664 130.268L516.16 79.504C517.597 77.544 519.753 75.976 522.628 74.8C525.503 73.624 528.704 73.036 532.232 73.036C534.584 73.036 536.871 73.428 539.092 74.212C541.313 74.996 543.143 76.0413 544.58 77.348L499.5 141.244L546.932 207.884C543.404 211.804 538.896 213.764 533.408 213.764C530.533 213.764 527.855 213.176 525.372 212C523.02 210.693 521.06 208.929 519.492 206.708L486.368 158.688L453.048 206.708C451.48 208.799 449.455 210.497 446.972 211.804C444.62 213.111 442.007 213.764 439.132 213.764Z" fill="white"/>
<defs>
<linearGradient id="paint0_linear_1_55" x1="80.058" y1="99.1483" x2="80.058" y2="243.716" gradientUnits="userSpaceOnUse">
<stop stop-color="#0993F9"/>
<stop offset="0.389022" stop-color="#1098F0"/>
<stop offset="0.53653" stop-color="#21A6D8"/>
<stop offset="1" stop-color="#33B4BF"/>
</linearGradient>
<linearGradient id="paint1_linear_1_55" x1="86.8208" y1="105.214" x2="23.5587" y2="177.084" gradientUnits="userSpaceOnUse">
<stop stop-color="#0993F9"/>
<stop offset="1" stop-color="#035ED1"/>
</linearGradient>
<linearGradient id="paint2_linear_1_55" x1="75.5755" y1="64.0114" x2="15.0729" y2="131.988" gradientUnits="userSpaceOnUse">
<stop stop-color="#0993F9"/>
<stop offset="1" stop-color="#035ED1"/>
</linearGradient>
</defs>
</svg>
